<?xml version="1.0" standalone="no"?>
<!DOCTYPE svg PUBLIC "-//W3C//DTD SVG 20010904//EN"
 "http://www.w3.org/TR/2001/REC-SVG-20010904/DTD/svg10.dtd">
<svg version="1.0" xmlns="http://www.w3.org/2000/svg"
 width="2000.000000pt" height="2000.000000pt" viewBox="0 0 2000.000000 2000.000000"
 preserveAspectRatio="xMidYMid meet">
<metadata>
Created by potrace 1.11, written by Peter Selinger 2001-2013
</metadata>
<g transform="translate(0.000000,2000.000000) scale(0.100000,-0.100000)"
fill="#000000" stroke="none">
<path d="M9545 19664 c-27 -2 -122 -8 -210 -14 -1857 -125 -3669 -807 -5165
-1943 -1645 -1250 -2850 -2984 -3440 -4952 -197 -654 -319 -1327 -382 -2090
-18 -218 -18 -1142 0 -1360 44 -531 110 -984 208 -1425 359 -1605 1105 -3062
2212 -4320 183 -208 638 -661 844 -842 948 -828 1988 -1443 3141 -1856 829
-298 1623 -465 2582 -544 254 -21 1165 -17 1424 5 437 38 784 87 1160 162
1701 342 3237 1113 4561 2289 174 155 591 572 747 747 1201 1352 1985 2940
2313 4684 62 330 109 694 142 1100 18 218 18 1142 0 1360 -57 692 -158 1283
-322 1880 -521 1896 -1619 3601 -3140 4873 -1453 1215 -3224 1978 -5090 2192
-392 45 -532 52 -1040 55 -272 1 -517 1 -545 -1z m1080 -773 c825 -66 1489
-198 2215 -441 1159 -387 2210 -999 3137 -1827 139 -124 552 -537 676 -676
1256 -1406 2025 -3121 2232 -4972 41 -365 50 -549 50 -990 0 -441 -9 -625 -50
-990 -207 -1851 -976 -3566 -2232 -4972 -124 -139 -537 -552 -676 -676 -1340
-1196 -2974 -1958 -4722 -2201 -451 -62 -726 -80 -1240 -80 -514 0 -789 18
-1240 80 -1748 243 -3382 1005 -4722 2201 -139 124 -552 537 -676 676 -1256
1406 -2025 3121 -2232 4972 -41 365 -50 549 -50 990 0 441 9 625 50 990 207
1851 976 3566 2232 4972 124 139 537 552 676 676 1244 1111 2738 1846 4352
2141 401 73 704 108 1240 140 115 7 851 -3 980 -13z"/>
<path d="M9730 18409 c-2566 -83 -4939 -1333 -6492 -3419 -1020 -1370 -1596
-3029 -1647 -4744 -83 -2777 1175 -5365 3421 -7040 1145 -853 2522 -1406 3953
-1585 392 -50 505 -56 1050 -56 545 0 658 6 1050 56 2419 304 4587 1645 5958
3686 878 1307 1369 2837 1416 4417 70 2341 -811 4561 -2469 6216 -1022 1022
-2246 1747 -3620 2145 -635 184 -1339 299 -1955 320 -334 11 -437 12 -665 4z
m-1350 -6028 c487 -65 915 -191 1315 -386 121 -59 326 -173 344 -191 2 -2
-114 -248 -259 -547 l-262 -545 -72 41 c-127 72 -407 204 -576 270 -486 192
-939 286 -1229 258 -292 -30 -459 -145 -490 -339 -28 -174 51 -326 232 -446
155 -103 327 -167 842 -317 502 -146 734 -229 960 -343 499 -253 764 -586 852
-1071 24 -127 23 -436 0 -565 -95 -522 -401 -904 -922 -1151 -507 -240 -1226
-313 -1921 -194 -628 108 -1260 374 -1742 734 l-111 83 270 540 270 540 37
-34 c54 -49 184 -146 287 -215 571 -381 1315 -619 1795 -574 286 27 471 124
553 290 31 63 32 71 32 186 0 112 -2 124 -29 180 -40 82 -149 189 -251 246
-167 95 -292 139 -795 280 -848 238 -1161 382 -1446 664 -274 270 -396 601
-381 1030 7 182 26 293 77 446 75 225 175 386 349 559 148 147 266 230 466
330 284 141 596 225 965 260 168 15 664 4 840 -19z m6420 -415 l0 -355 -1097
-2400 -1098 -2401 -489 0 c-387 0 -487 3 -483 13 3 6 476 1040 1052 2297 576
1257 1056 2304 1066 2328 l18 42 -1074 0 -1075 0 0 -143 c0 -79 -3 -252 -7
-385 l-6 -242 -404 0 -403 0 0 800 0 800 2000 0 2000 0 0 -354z"/>
</g>
</svg>
